<svg width="24" height="24" viewBox="0 0 24 24" fill="none" xmlns="http://www.w3.org/2000/svg">
<path d="M18.9391 8.69712C19.1384 8.69712 19.3193 8.78412 19.4623 8.93112C19.5955 9.08811 19.6626 9.28311 19.6432 9.48911C19.6432 9.55711 19.1102 16.297 18.8058 19.134C18.6152 20.875 17.4929 21.932 15.8094 21.961C14.5149 21.99 13.2496 22 12.0038 22C10.6811 22 9.38763 21.99 8.13206 21.961C6.50498 21.922 5.38168 20.846 5.20079 19.134C4.88763 16.287 4.36439 9.55711 4.35467 9.48911C4.34494 9.28311 4.41108 9.08811 4.54529 8.93112C4.67756 8.78412 4.86818 8.69712 5.06852 8.69712H18.9391ZM14.0647 1.99998C14.9488 1.99998 15.7385 2.61698 15.967 3.49697L16.1304 4.22696C16.2627 4.82196 16.7781 5.24295 17.3714 5.24295H20.2871C20.6761 5.24295 21 5.56595 21 5.97694V6.35694C21 6.75794 20.6761 7.09093 20.2871 7.09093H3.71385C3.32386 7.09093 3 6.75794 3 6.35694V5.97694C3 5.56595 3.32386 5.24295 3.71385 5.24295H6.62957C7.22185 5.24295 7.7373 4.82196 7.87054 4.22796L8.02323 3.54597C8.26054 2.61698 9.0415 1.99998 9.93527 1.99998H14.0647Z" fill="#E25959"/>
</svg>
