<svg width="65" height="12" viewBox="0 0 65 12" fill="none" xmlns="http://www.w3.org/2000/svg">
<path d="M5.9596 0L7.78814 3.46616L11.6275 4.1459L8.91825 6.96784L9.46256 10.8541L5.9596 9.132L2.45663 10.8541L3.00095 6.96784L0.291683 4.1459L4.13105 3.46616L5.9596 0Z" fill="#FFCA42"/>
<path d="M19.0707 0L20.8992 3.46616L24.7386 4.1459L22.0293 6.96784L22.5736 10.8541L19.0707 9.132L15.5677 10.8541L16.112 6.96784L13.4028 4.1459L17.2421 3.46616L19.0707 0Z" fill="#FFCA42"/>
<path d="M32.1818 0L34.0104 3.46616L37.8497 4.1459L35.1405 6.96784L35.6848 10.8541L32.1818 9.132L28.6789 10.8541L29.2232 6.96784L26.5139 4.1459L30.3533 3.46616L32.1818 0Z" fill="#FFCA42"/>
<path d="M45.2929 0L47.1215 3.46616L50.9609 4.1459L48.2516 6.96784L48.7959 10.8541L45.2929 9.132L41.79 10.8541L42.3343 6.96784L39.625 4.1459L43.4644 3.46616L45.2929 0Z" fill="#EEEFF2"/>
<path d="M58.4041 0L60.2326 3.46616L64.072 4.1459L61.3627 6.96784L61.907 10.8541L58.4041 9.132L54.9011 10.8541L55.4454 6.96784L52.7361 4.1459L56.5755 3.46616L58.4041 0Z" fill="#EEEFF2"/>
</svg>
