<svg width="20" height="20" viewBox="0 0 20 20" fill="none" xmlns="http://www.w3.org/2000/svg">
<path d="M5.4263 16.9078C6.25565 16.9078 6.93512 17.6018 6.93512 18.459C6.93512 19.306 6.25565 20 5.4263 20C4.58695 20 3.90748 19.306 3.90748 18.459C3.90748 17.6018 4.58695 16.9078 5.4263 16.9078ZM16.6675 16.9078C17.4969 16.9078 18.1764 17.6018 18.1764 18.459C18.1764 19.306 17.4969 20 16.6675 20C15.8282 20 15.1487 19.306 15.1487 18.459C15.1487 17.6018 15.8282 16.9078 16.6675 16.9078ZM0.778211 8.8972e-05L0.880041 0.00870779L3.26318 0.375071C3.60292 0.437322 3.85272 0.722044 3.8827 1.06902L4.07255 3.35496C4.10253 3.68254 4.36233 3.92746 4.68208 3.92746H18.1766C18.7861 3.92746 19.1858 4.14177 19.5855 4.6112C19.9852 5.08064 20.0551 5.75417 19.9652 6.36546L19.0159 13.06C18.836 14.3469 17.7569 15.2949 16.4879 15.2949H5.58637C4.25741 15.2949 3.15827 14.255 3.04835 12.9079L2.12907 1.78337L0.620243 1.51804C0.220555 1.4466 -0.059227 1.04861 0.0107185 0.640403C0.080664 0.223015 0.47036 -0.0535433 0.880041 0.00870779L0.778211 8.8972e-05ZM14.8891 7.70233H12.1213C11.7016 7.70233 11.3719 8.03909 11.3719 8.46771C11.3719 8.88612 11.7016 9.23309 12.1213 9.23309H14.8891C15.3088 9.23309 15.6385 8.88612 15.6385 8.46771C15.6385 8.03909 15.3088 7.70233 14.8891 7.70233Z" fill="#227EFF"/>
</svg>
