<svg width="16" height="16" viewBox="0 0 16 16" fill="none" xmlns="http://www.w3.org/2000/svg">
<rect width="16" height="16" rx="8" fill="#EE6F44"/>
<path d="M6.52656 6.91C6.52656 5.91 7.06656 5.25 7.76656 5.25C8.70656 5.25 9.26656 6.05 9.36656 7.56C8.89656 8.25 8.33656 8.54 7.83656 8.54C6.96656 8.54 6.52656 7.9 6.52656 6.91ZM7.56656 12.13C8.94656 12.13 10.2266 10.99 10.2266 8.02C10.2266 5.69 9.17656 4.53 7.76656 4.53C6.62656 4.53 5.66656 5.49 5.66656 6.91C5.66656 8.43 6.46656 9.22 7.68656 9.22C8.29656 9.22 8.92656 8.87 9.37656 8.32C9.30656 10.59 8.48656 11.37 7.53656 11.37C7.06656 11.37 6.61656 11.16 6.31656 10.81L5.80656 11.38C6.21656 11.81 6.77656 12.13 7.56656 12.13Z" fill="white"/>
</svg>
