<svg width="23" height="22" viewBox="0 0 23 22" fill="none" xmlns="http://www.w3.org/2000/svg">
<path d="M13.8762 6.02411C14.57 5.8986 15.2786 6.14764 15.7413 6.67959L16.9145 8.02835C17.3772 8.5603 17.5256 9.29657 17.3052 9.96625L16.343 12.8893C16.2304 13.2313 16.0275 13.5366 15.7558 13.773L7.89797 20.6079C7.06456 21.3328 5.80129 21.2448 5.07637 20.4114L1.83722 16.6875C1.1123 15.8541 1.20026 14.5908 2.03367 13.8659L9.89154 7.03097C10.1632 6.79464 10.4937 6.63605 10.8481 6.57194L13.8762 6.02411Z" stroke="#718596"/>
<circle cx="12.9569" cy="10.2861" r="2.03081" transform="rotate(-41.0173 12.9569 10.2861)" stroke="#718596"/>
<path d="M17.2616 5.95211C18.1072 5.39177 19.5731 3.94149 18.6724 2.62305" stroke="#718596" stroke-linecap="round"/>
</svg>
